<svg width="515" height="514" viewBox="0 0 515 514" fill="none" xmlns="http://www.w3.org/2000/svg">
<circle cx="257" cy="257" r="257" fill="url(#paint0_linear_5_17453)"/>
<circle cx="257.5" cy="257.5" r="222.5" fill="#142D3E"/>
<g clip-path="url(#clip0_5_17453)">
<path d="M118.304 303.618L88.3748 244.282V296.984C88.3025 298.037 88.5942 299.082 89.2009 299.946C90.014 300.766 91.0465 301.336 92.1747 301.585V303.593H68.3333V301.585C69.4626 301.338 70.4958 300.769 71.3071 299.946C71.9241 299.087 72.2209 298.039 72.1459 296.984V224.278C72.2145 223.244 71.9176 222.218 71.3071 221.381C70.4958 220.557 69.4626 219.988 68.3333 219.741V217.733H99.6221V219.741C98.8132 219.874 98.0815 220.3 97.566 220.937C97.0505 221.575 96.7872 222.379 96.8261 223.198C96.8751 224.214 97.1578 225.206 97.6521 226.095L119.791 270.5L142.234 226.858C143.014 225.568 143.52 224.132 143.721 222.639C143.721 220.944 142.73 219.978 140.747 219.741V217.733H171.439V219.741C170.308 219.984 169.274 220.554 168.465 221.381C167.854 222.218 167.557 223.244 167.626 224.278V296.984C167.551 298.039 167.848 299.087 168.465 299.946C169.274 300.772 170.308 301.342 171.439 301.585V303.593H146.136V301.585C147.257 301.359 148.285 300.801 149.084 299.984C149.712 299.115 150.018 298.054 149.948 296.984V244.282L118.304 303.618ZM249.889 272.724H228.742C227.693 272.645 226.652 272.957 225.819 273.6C225.013 274.489 224.46 275.577 224.218 276.752H222.197V256.749H224.218C224.44 257.934 224.996 259.032 225.819 259.913C226.658 260.542 227.697 260.845 228.742 260.765H269.41V262.785C268.234 263.037 267.149 263.603 266.271 264.425C265.619 265.263 265.302 266.314 265.381 267.373V285C265.307 286.055 265.613 287.101 266.245 287.949C267.122 288.786 268.22 289.355 269.41 289.588V291.164C253.1 300.484 237.295 305.143 221.994 305.143C208.116 305.143 196.797 301.852 188.036 295.269C177.022 286.957 171.515 275.418 171.515 260.65C171.515 246.9 176.421 235.953 186.232 227.811C195.551 220.093 207.925 216.234 223.354 216.234C228.014 216.206 232.664 216.657 237.231 217.581C242.285 218.702 247.241 220.228 252.05 222.143C253.979 223.034 256.038 223.609 258.15 223.846C259.314 223.726 260.402 223.215 261.238 222.397L263.005 223.338L252.838 243.913L251.02 242.973C251.044 241.952 250.849 240.938 250.449 239.999C249.845 239.122 249.076 238.371 248.186 237.787C244.764 235.476 240.948 233.809 236.926 232.869C232.378 231.57 227.677 230.886 222.947 230.836C213.975 230.836 206.536 233.348 200.631 238.372C193.954 244.066 190.616 251.585 190.616 260.93C190.616 269.978 193.865 277.29 200.364 282.865C206.294 287.949 214.14 290.49 223.9 290.49C228.607 290.486 233.298 289.94 237.88 288.864C242.055 287.939 246.081 286.433 249.838 284.39L249.889 272.724ZM356.35 274.109L368.232 292.015L366.606 293.146C365.871 292.279 364.854 291.698 363.734 291.507C362.984 291.507 360.874 292.524 357.379 294.532C351.696 298.019 345.633 300.846 339.308 302.957C333.611 304.509 327.723 305.241 321.82 305.131C308.349 305.131 297.297 301.924 288.664 295.51C283.64 291.834 279.531 287.051 276.654 281.531C273.239 275.078 271.491 267.874 271.57 260.574C271.376 250.758 274.582 241.177 280.644 233.454C289.735 221.923 303.478 216.157 321.871 216.157C327.758 216.06 333.629 216.8 339.308 218.356C345.657 220.471 351.746 223.302 357.456 226.794C360.912 228.768 363.03 229.751 363.81 229.743C364.928 229.552 365.943 228.976 366.682 228.116L368.309 229.247L356.426 247.179L354.736 246.048C354.815 245.488 354.858 244.923 354.863 244.358C354.841 243.712 354.69 243.077 354.42 242.49C354.149 241.902 353.764 241.375 353.287 240.939C351.605 239.433 349.733 238.151 347.721 237.127C340.587 233.013 332.495 230.852 324.26 230.861C314.5 230.861 306.722 233.31 300.927 238.207C297.606 240.92 294.954 244.362 293.175 248.265C291.397 252.167 290.54 256.427 290.671 260.714C290.54 265.001 291.397 269.26 293.175 273.163C294.954 277.066 297.606 280.507 300.927 283.221C306.722 288.118 314.5 290.567 324.26 290.567C332.477 290.561 340.546 288.391 347.657 284.276C349.667 283.247 351.538 281.966 353.224 280.463C353.7 280.024 354.083 279.495 354.352 278.905C354.62 278.316 354.768 277.679 354.787 277.032C354.782 276.483 354.74 275.935 354.66 275.392L356.35 274.109ZM447.191 258.63C456.85 262.281 461.675 269.034 461.667 278.887C461.667 286.741 458.858 292.888 453.241 297.328C450.298 299.59 446.925 301.229 443.328 302.144C438.748 303.219 434.052 303.714 429.348 303.618H370.647V301.61C371.828 301.372 372.916 300.804 373.786 299.971C374.432 299.125 374.749 298.072 374.676 297.01V224.342C374.749 223.279 374.432 222.227 373.786 221.381C372.916 220.548 371.828 219.979 370.647 219.741V217.733H428.789C433.31 217.631 437.826 218.058 442.248 219.004C445.485 219.774 448.518 221.23 451.144 223.274C456.227 227.265 458.769 233.013 458.769 240.52C458.811 248.899 454.952 254.936 447.191 258.63ZM393.459 251.894H426.375C431.356 251.894 434.839 251.17 436.821 249.695C439.032 248.018 440.151 245.413 440.151 241.892C440.151 238.372 439.096 235.716 436.999 234.178C434.902 232.64 431.356 231.891 426.375 231.891H393.459V251.894ZM393.459 289.461H425.231C431.162 289.461 435.423 288.643 438.016 287.008C440.99 285.127 442.477 282.043 442.477 277.756C442.477 273.469 440.99 270.385 438.016 268.504C435.474 266.878 431.191 266.052 425.231 266.052H393.459V289.461ZM166.851 347.095C164.92 347.266 163.131 348.177 161.856 349.636C160.388 350.91 159.476 352.707 159.315 354.644C159.29 355.468 159.441 356.289 159.756 357.051C160.072 357.813 160.545 358.5 161.145 359.066C161.703 359.663 162.381 360.136 163.134 360.453C163.888 360.771 164.699 360.926 165.516 360.909C167.475 360.749 169.296 359.838 170.6 358.367C172.056 357.117 172.968 355.348 173.142 353.436C173.153 352.612 172.99 351.794 172.663 351.036C172.337 350.278 171.855 349.598 171.248 349.039C170.694 348.422 170.016 347.93 169.258 347.595C168.5 347.26 167.68 347.089 166.851 347.095ZM225.794 380.633C225.463 380.493 224.421 380.175 222.667 379.667L219.312 378.714L217.863 383.797L221.053 384.712C222.332 385.14 223.653 385.43 224.993 385.577C225.515 385.564 226.021 385.391 226.442 385.081C226.874 384.727 227.178 384.24 227.306 383.696C227.499 383.111 227.463 382.475 227.204 381.916C226.897 381.339 226.398 380.885 225.794 380.633ZM245.505 383.861C244.688 383.736 243.854 383.785 243.057 384.003C242.259 384.222 241.517 384.607 240.879 385.132C239.503 386.504 238.703 388.349 238.642 390.292C238.312 392.207 238.741 394.176 239.837 395.782C240.339 396.434 240.973 396.973 241.698 397.363C242.423 397.753 243.222 397.985 244.043 398.044C244.856 398.153 245.682 398.09 246.468 397.858C247.255 397.625 247.983 397.23 248.606 396.697C250.003 395.316 250.813 393.449 250.868 391.486C251.221 389.588 250.82 387.628 249.75 386.021C249.232 385.385 248.587 384.865 247.856 384.492C247.125 384.12 246.324 383.905 245.505 383.861ZM408.011 308.422H356.884C353.287 314.268 350.529 319.263 347.301 323.851C344.118 328.374 340.564 332.624 336.677 336.559C332.443 340.664 327.943 344.485 323.206 347.997C318.965 351.343 314.484 354.372 309.798 357.058C304.84 359.706 299.696 361.991 294.408 363.896C289.451 365.751 284.317 368.077 279.157 368.293C273.222 368.547 267.58 370.542 261.835 370.53C253.181 370.53 244.336 370.212 235.973 368.305C227.929 366.349 220.087 363.639 212.551 360.21C204.873 356.824 197.65 352.491 191.048 347.311C184.211 341.96 177.768 336.61 172.557 329.404C167.613 322.58 162.466 315.958 158.908 308.854H108.518C129.271 372.194 188.417 417.933 258.188 417.933C289.336 417.965 319.78 408.67 345.598 391.245C348.064 389.542 350.491 387.788 352.919 386.021C378.759 366.371 397.981 339.297 408.011 308.422ZM135.537 320.724C135.537 319.615 135.977 318.552 136.761 317.768C137.545 316.984 138.609 316.543 139.718 316.543C140.266 316.543 140.809 316.651 141.316 316.862C141.823 317.072 142.283 317.38 142.67 317.768C143.057 318.157 143.364 318.618 143.573 319.125C143.781 319.632 143.888 320.176 143.886 320.724C143.886 321.83 143.447 322.89 142.665 323.672C141.884 324.453 140.823 324.893 139.718 324.893C139.166 324.894 138.62 324.787 138.11 324.575C137.6 324.364 137.137 324.054 136.749 323.663C136.36 323.272 136.052 322.807 135.844 322.296C135.636 321.785 135.532 321.238 135.537 320.686V320.724ZM145.551 340.105C146.142 341.041 147.041 341.742 148.093 342.088C149.364 342.393 150.699 342.286 151.905 341.782L153.176 346.116C151.224 346.81 149.092 346.81 147.14 346.116C145.212 345.301 143.589 343.901 142.501 342.113C141.72 341.022 141.17 339.783 140.883 338.472C140.597 337.161 140.581 335.805 140.836 334.488C141.152 333.107 141.746 331.805 142.583 330.662C143.42 329.519 144.482 328.559 145.704 327.841C146.875 326.958 148.213 326.321 149.637 325.967C151.061 325.613 152.541 325.55 153.99 325.782C155.345 326.076 156.625 326.643 157.753 327.449C158.881 328.256 159.832 329.284 160.547 330.472C161.964 332.424 162.599 334.836 162.327 337.233C162.068 338.721 161.399 340.108 160.395 341.236L157.116 338.084C157.856 337.341 158.306 336.359 158.387 335.314C158.428 334.226 158.111 333.154 157.485 332.264C157.094 331.625 156.571 331.078 155.95 330.659C155.33 330.24 154.626 329.96 153.888 329.836C151.965 329.718 150.066 330.321 148.563 331.527C146.377 332.975 145.106 334.424 144.75 335.886C144.574 336.599 144.554 337.342 144.692 338.064C144.83 338.786 145.123 339.469 145.551 340.067V340.105ZM158.603 361.71C157.53 360.741 156.663 359.567 156.052 358.257C155.441 356.948 155.098 355.529 155.045 354.084C155.058 352.643 155.373 351.22 155.968 349.907C156.563 348.594 157.426 347.42 158.501 346.459C159.761 345.133 161.297 344.101 163 343.435C164.113 343.041 165.289 342.855 166.47 342.888C167.621 342.901 168.758 343.148 169.812 343.613C171.303 344.282 172.65 345.236 173.777 346.421C174.841 347.395 175.7 348.57 176.305 349.879C176.909 351.189 177.247 352.605 177.297 354.046C177.263 355.492 176.932 356.915 176.324 358.227C175.716 359.538 174.845 360.711 173.764 361.672C172.8 362.742 171.625 363.603 170.313 364.2C169.001 364.797 167.58 365.117 166.139 365.141C164.712 365.086 163.31 364.746 162.016 364.141C160.722 363.537 159.561 362.68 158.603 361.621V361.71ZM181.834 380.036L182.076 363.807L174.451 374.99L171.007 372.639L182.711 355.495L186.321 357.961L186.003 374.482L193.819 363.044L197.263 365.395L185.533 382.488L181.834 380.036ZM199.893 389.72L195.839 387.813L203.134 372.194L197.161 369.411L198.648 366.221L214.636 373.694L213.149 376.871L207.201 374.088L199.893 389.72ZM231.83 384.776C231.656 385.463 231.347 386.109 230.922 386.676C230.497 387.243 229.963 387.721 229.352 388.08C227.886 388.824 226.21 389.049 224.599 388.716C225.317 389.405 225.933 390.192 226.429 391.054C227.052 392.322 227.566 393.64 227.967 394.994L229.454 399.632L224.294 398.158L222.426 392.922C222.027 391.697 221.548 390.5 220.99 389.338C220.732 388.867 220.371 388.458 219.935 388.144C219.276 387.764 218.565 387.482 217.825 387.305L216.948 387.051L214.572 395.375L210.264 394.104L215.957 374.139L225.031 376.681C226.725 377.09 228.349 377.749 229.848 378.638C230.773 379.271 231.458 380.198 231.792 381.268C232.148 382.374 232.161 383.561 231.83 384.674V384.776ZM255.468 392.198C255.404 393.638 255.041 395.05 254.402 396.343C253.763 397.636 252.863 398.782 251.757 399.709C250.616 400.568 249.314 401.191 247.928 401.54C246.542 401.889 245.1 401.958 243.688 401.742C242.254 401.666 240.851 401.307 239.557 400.685C238.264 400.063 237.106 399.192 236.151 398.12C235.258 397 234.609 395.706 234.246 394.321C233.882 392.935 233.813 391.489 234.042 390.075C234.175 388.255 234.704 386.485 235.592 384.89C236.211 383.883 237.008 382.996 237.943 382.272C238.843 381.55 239.881 381.018 240.993 380.709C242.572 380.295 244.215 380.183 245.835 380.379C247.265 380.458 248.665 380.821 249.954 381.444C251.244 382.068 252.396 382.941 253.346 384.013C254.229 385.148 254.87 386.452 255.229 387.845C255.587 389.237 255.656 390.689 255.43 392.109L255.468 392.198ZM259.815 402.365L258.684 381.815L263.157 381.561L264.098 398.628L275.23 398.018L275.421 401.513L259.815 402.365ZM376.976 316.645C378.085 316.645 379.148 317.085 379.933 317.869C380.717 318.653 381.157 319.717 381.157 320.826C381.157 321.374 381.049 321.917 380.839 322.424C380.628 322.931 380.32 323.391 379.932 323.778C379.543 324.165 379.082 324.472 378.575 324.681C378.068 324.889 377.525 324.996 376.976 324.994C375.871 324.994 374.81 324.555 374.028 323.773C373.247 322.992 372.808 321.931 372.808 320.826C372.787 320.266 372.88 319.707 373.08 319.184C373.28 318.66 373.584 318.183 373.973 317.779C374.362 317.376 374.829 317.055 375.345 316.836C375.861 316.617 376.416 316.505 376.976 316.505V316.645ZM357.189 330.281C357.895 329.062 358.748 327.936 359.73 326.926C360.69 325.969 361.888 325.284 363.2 324.943C364.508 324.638 365.869 324.638 367.178 324.943C368.796 325.342 370.332 326.021 371.715 326.951C372.992 327.736 374.127 328.734 375.07 329.9C375.994 331.056 376.618 332.422 376.887 333.878C377.058 335.067 376.958 336.279 376.595 337.423C376.181 338.694 375.591 339.901 374.841 341.007L370.317 348.124L352.804 336.991L357.189 330.281ZM305.083 391.512C304.886 392.454 304.448 393.33 303.812 394.053C303.082 394.836 302.176 395.433 301.169 395.794C300.47 396.074 298.741 396.595 295.996 397.37L288.714 399.378L283.211 379.362L291.764 377.011C293.013 376.637 294.288 376.352 295.577 376.159C296.401 376.063 297.236 376.136 298.03 376.375C298.818 376.638 299.539 377.072 300.139 377.646C300.758 378.232 301.199 378.981 301.41 379.807C301.669 380.727 301.634 381.704 301.309 382.603C300.982 383.546 300.386 384.373 299.593 384.979C300.837 384.923 302.066 385.266 303.101 385.958C304.034 386.614 304.702 387.584 304.981 388.69C305.241 389.56 305.293 390.478 305.134 391.372L305.083 391.512ZM327.006 382.539C326.479 383.867 325.693 385.077 324.693 386.098C323.694 387.119 322.501 387.931 321.185 388.487C319.923 389.174 318.538 389.603 317.108 389.749C315.679 389.895 314.235 389.756 312.861 389.338C311.518 388.848 310.291 388.084 309.259 387.095C308.226 386.107 307.41 384.914 306.862 383.594C306.022 381.972 305.549 380.184 305.477 378.358C305.475 377.172 305.69 375.996 306.113 374.889C306.504 373.805 307.109 372.811 307.892 371.966C309.017 370.784 310.359 369.831 311.844 369.157C313.107 368.438 314.5 367.978 315.943 367.806C317.386 367.634 318.848 367.752 320.245 368.153C321.611 368.657 322.857 369.439 323.905 370.449C324.953 371.46 325.779 372.677 326.332 374.024C327.027 375.294 327.45 376.694 327.575 378.136C327.7 379.578 327.523 381.03 327.056 382.399L327.006 382.539ZM346.602 372.639L342.256 369.97L335.088 375.206L336.359 380.086L332.547 382.895L327.298 361.036L331.11 358.24L350.529 369.767L346.602 372.639ZM363.873 355.991L358.371 355.254C357.11 355.037 355.836 354.91 354.558 354.872C354.018 354.87 353.485 355.001 353.008 355.254C352.363 355.664 351.781 356.165 351.279 356.741L350.656 357.401L357.011 363.349L353.923 366.603L338.837 352.356L345.319 345.493C346.464 344.174 347.8 343.035 349.284 342.113C350.271 341.596 351.401 341.417 352.499 341.605C353.646 341.801 354.709 342.337 355.549 343.142C356.617 344.097 357.261 345.436 357.341 346.866C357.322 348.51 356.749 350.1 355.714 351.378C356.658 351.056 357.642 350.872 358.637 350.831C360.046 350.858 361.45 351.011 362.831 351.289L367.635 352.102L363.873 355.991ZM352.436 346.688C352.006 346.24 351.417 345.979 350.796 345.964C350.152 345.981 349.533 346.219 349.042 346.637C348.763 346.866 348 347.641 346.742 348.963L344.34 351.505L348.153 355.114L350.428 352.712C351.384 351.772 352.236 350.733 352.969 349.611C353.202 349.139 353.282 348.606 353.198 348.086C353.149 347.516 352.917 346.976 352.537 346.548L352.436 346.688ZM312.619 137.834L313.153 129.332L307.256 135.444L312.619 137.834ZM231.551 127.768L237.333 126.79L233.088 119.406L231.551 127.768ZM372.858 337.309C373.093 336.676 373.171 335.996 373.087 335.326C372.939 334.55 372.573 333.831 372.032 333.255C371.17 332.305 370.172 331.487 369.071 330.828C368.04 330.123 366.903 329.587 365.703 329.239C364.925 329.029 364.105 329.029 363.327 329.239C362.579 329.478 361.91 329.917 361.395 330.51C360.589 331.442 359.87 332.446 359.247 333.509L358.167 335.212L369.77 342.583L371.562 339.749C372.079 338.984 372.514 338.166 372.858 337.309ZM258.188 100C188.367 100 129.182 145.751 108.467 209.206H159.416C163.509 197.526 171.693 188.973 179.534 180.7C190.756 168.868 204.85 160.722 220.113 154.571C231.983 149.793 244.59 148.814 256.866 147.759C266.817 146.895 277.493 148.928 287.164 151.915C298.144 155.308 309.15 159.616 318.58 166.67C324.934 171.423 331.632 175.998 336.918 181.806C344.691 190.059 351.2 199.416 356.236 209.574H408.036C407.299 209.574 406.053 209.371 406.231 209.244C406.749 209.087 407.281 208.98 407.82 208.926C386.978 145.624 327.87 100 258.188 100ZM156.379 185.313L142.12 176.163L154.079 188.872L151.816 192.405L135.295 186.838L149.554 195.989L147.368 199.382L129.259 187.753L132.766 182.289L147.229 186.927L136.96 175.744L140.48 170.266L158.603 181.882L156.379 185.313ZM161.107 179.366L144.649 165.5L147.445 162.171L163.966 176.049L161.107 179.366ZM175.899 162.145C175.509 164.168 174.453 166.002 172.9 167.356C171.97 168.287 170.852 169.009 169.62 169.474C168.388 169.939 167.072 170.135 165.758 170.05C162.839 169.761 160.148 168.343 158.26 166.098C156.041 164.017 154.719 161.155 154.574 158.117C154.577 156.757 154.871 155.414 155.437 154.178C156.003 152.941 156.826 151.84 157.853 150.949C159.512 149.264 161.767 148.301 164.131 148.268C165.669 148.328 167.162 148.802 168.452 149.64L166.012 153.338C165.151 152.726 164.105 152.43 163.051 152.5C161.993 152.588 160.997 153.036 160.23 153.77C159.681 154.26 159.249 154.865 158.963 155.542C158.677 156.219 158.546 156.951 158.578 157.685C158.864 159.647 159.831 161.447 161.31 162.768C163.165 164.751 164.856 165.818 166.393 165.996C167.102 166.073 167.819 165.991 168.491 165.756C169.164 165.52 169.776 165.138 170.282 164.636C171.096 163.898 171.603 162.883 171.706 161.79C171.747 160.459 171.374 159.149 170.638 158.041L174.629 156.121C175.71 157.933 176.157 160.052 175.899 162.145ZM192.205 152.106L187.007 144.264L179.915 148.967L185.113 156.808L181.491 159.21L169.596 141.278L173.218 138.876L177.895 145.929L184.999 141.227L180.309 134.161L183.931 131.759L195.827 149.704L192.205 152.106ZM199.296 148.128L189.587 128.912L193.399 126.955L203.109 146.158L199.296 148.128ZM220.481 138.584C219.124 139.763 217.56 140.681 215.868 141.29C213.956 142.03 211.884 142.258 209.857 141.951C207.994 141.635 206.275 140.746 204.939 139.41C203.52 137.973 202.451 136.229 201.812 134.313C201.068 132.372 200.832 130.272 201.126 128.213C201.419 126.272 202.307 124.469 203.668 123.054C204.918 121.8 206.453 120.866 208.141 120.334C210.184 119.464 212.453 119.277 214.61 119.8C216.413 120.361 217.943 121.57 218.906 123.193L215.093 125.417C214.503 124.561 213.638 123.933 212.64 123.638C211.559 123.349 210.414 123.416 209.374 123.829C208.568 124.073 207.824 124.488 207.193 125.044C206.561 125.601 206.057 126.288 205.714 127.057C205.075 128.886 205.157 130.89 205.943 132.661C206.488 134.657 207.751 136.381 209.488 137.503C210.223 137.908 211.038 138.145 211.875 138.197C212.712 138.25 213.551 138.117 214.33 137.808C215.214 137.483 216.028 136.996 216.732 136.372C217.417 135.79 218.016 135.114 218.512 134.364L217.584 131.823L212.907 133.5L211.636 130.094L220.456 126.93L223.354 135C222.63 136.346 221.655 137.541 220.481 138.52V138.584ZM241.985 134.771L239.316 130.259L230.826 131.695L229.899 136.779L225.349 137.554L230.038 114.933L234.563 114.17L246.649 133.958L241.985 134.771ZM265.165 134.186L260.806 134.123L252.355 119.94L252.126 133.983L248.097 133.919L248.441 112.391L252.673 112.467L261.238 126.981L261.48 112.607H265.521L265.165 134.186ZM292.095 138.418C290.313 138.655 288.503 138.555 286.757 138.126C284.755 137.686 282.902 136.731 281.381 135.356C279.998 134.064 279.055 132.37 278.687 130.514C278.283 128.572 278.331 126.563 278.827 124.642C279.285 122.614 280.246 120.735 281.623 119.177C282.936 117.717 284.674 116.704 286.592 116.28C288.335 115.919 290.139 115.98 291.853 116.458C294.032 116.866 296.02 117.967 297.521 119.597C298.722 121.054 299.33 122.91 299.224 124.795L294.853 124.553C294.825 123.512 294.449 122.509 293.785 121.706C293.073 120.838 292.102 120.22 291.015 119.94C290.208 119.702 289.36 119.639 288.527 119.755C287.694 119.872 286.896 120.164 286.185 120.613C284.635 121.784 283.589 123.502 283.262 125.417C282.624 127.38 282.723 129.508 283.542 131.403C283.927 132.14 284.467 132.784 285.125 133.29C285.784 133.797 286.544 134.155 287.354 134.339C288.271 134.553 289.219 134.596 290.15 134.466C291.027 134.357 291.883 134.122 292.692 133.767L293.34 131.111L288.511 129.929L289.375 126.409L298.475 128.645L296.428 136.97C295.082 137.683 293.611 138.132 292.095 138.291V138.418ZM316.432 148.865L312.111 146.946L312.378 141.71L304.524 138.215L300.915 142.028L296.695 140.147L313.115 123.892L317.309 125.76L316.432 148.865ZM334.745 161.307L331.403 159.032L340.985 145.052L327.87 156.604L324.426 154.241L330.488 137.859L320.905 151.839L317.576 149.551L329.751 131.759L335.114 135.444L330.03 149.754L341.468 139.829L346.844 143.514L334.745 161.307ZM337.16 163.848L351.521 147.81L354.749 150.708L340.4 166.746L337.16 163.848ZM354.558 181.869L351.66 178.603L356.439 162.806L345.916 172.109L343.247 169.084L359.375 154.825L362.17 157.99L357.239 174.117L368.004 164.598L370.685 167.623L354.558 181.869ZM380.09 193.015L377.154 189.749C377.879 188.996 378.327 188.019 378.425 186.978C378.482 185.864 378.183 184.76 377.573 183.826C377.167 183.091 376.609 182.45 375.937 181.946C375.264 181.442 374.492 181.087 373.672 180.903C371.748 180.646 369.798 181.132 368.22 182.263C366.381 183.204 364.952 184.787 364.204 186.711C363.958 187.515 363.892 188.364 364.011 189.196C364.129 190.028 364.429 190.824 364.89 191.528C365.389 192.325 366.031 193.023 366.784 193.587C367.503 194.113 368.289 194.54 369.122 194.858L371.448 193.421L368.906 189.177L371.994 187.283L376.887 195.29L369.567 199.75C368.085 199.307 366.707 198.572 365.513 197.59C364.077 196.509 362.857 195.169 361.916 193.637C360.807 191.913 360.167 189.928 360.061 187.88C359.988 185.99 360.508 184.123 361.548 182.543C362.636 180.887 364.082 179.498 365.78 178.476C367.535 177.362 369.539 176.703 371.613 176.557C373.576 176.447 375.526 176.949 377.192 177.993C378.678 178.959 379.911 180.266 380.789 181.806C382.043 183.659 382.65 185.875 382.517 188.109C382.343 189.988 381.478 191.736 380.09 193.015ZM339.092 367.848L332.076 363.438L334.199 371.432L339.092 367.848ZM295.717 384.369C296.348 384.153 296.889 383.733 297.255 383.175C297.414 382.917 297.514 382.627 297.549 382.327C297.585 382.026 297.553 381.721 297.458 381.434C297.333 380.872 296.99 380.383 296.505 380.074C295.947 379.779 295.304 379.689 294.687 379.82C294.243 379.896 292.997 380.214 290.964 380.773L288.422 381.446L289.693 386.085L292.527 385.297C294.268 384.776 295.31 384.458 295.717 384.306V384.369ZM299.682 388.182C299.217 387.84 298.657 387.653 298.081 387.648C296.749 387.738 295.434 387.995 294.166 388.411L290.671 389.376L292.146 394.727L296.098 393.57C297.094 393.328 298.071 393.014 299.021 392.63C299.608 392.377 300.089 391.927 300.381 391.359C300.668 390.783 300.718 390.117 300.521 389.504C300.385 388.98 300.092 388.51 299.682 388.156V388.182ZM318.249 371.915C317.476 371.633 316.651 371.518 315.83 371.577C315.008 371.636 314.209 371.868 313.484 372.258C312.722 372.583 312.038 373.066 311.477 373.675C310.916 374.284 310.491 375.005 310.23 375.791C309.763 377.674 310.045 379.665 311.018 381.345C311.729 383.159 313.126 384.62 314.907 385.411C315.675 385.707 316.497 385.836 317.318 385.79C318.14 385.744 318.942 385.524 319.673 385.144C320.423 384.814 321.096 384.328 321.645 383.719C322.195 383.11 322.61 382.392 322.863 381.611C323.332 379.702 323.045 377.685 322.062 375.982C321.369 374.175 320.002 372.708 318.249 371.889V371.915Z" fill="white"/>
</g>
<defs>
<linearGradient id="paint0_linear_5_17453" x1="97.4827" y1="52.706" x2="428.644" y2="452.898" gradientUnits="userSpaceOnUse">
<stop stop-color="#61C8AF"/>
<stop offset="1" stop-color="#275D83"/>
</linearGradient>
<clipPath id="clip0_5_17453">
<rect width="393.333" height="317.882" fill="white" transform="translate(68.3333 100)"/>
</clipPath>
</defs>
</svg>
